<svg xmlns="http://www.w3.org/2000/svg" viewBox="0 0 2191 735.05" class="h-[31px] w-[109px] flex-shrink-0"><defs><linearGradient id="_r_1o_" x1="140.98" y1="103.76" x2="676" y2="638.78" gradientUnits="userSpaceOnUse"><stop offset="0" stop-color="rgb(var(--gradient-base))"></stop><stop offset=".5" stop-color="rgb(var(--gradient-mid))"></stop><stop offset="1" stop-color="rgb(var(--gradient-to))"></stop></linearGradient></defs><path d="M1116.15,172.1h-111.2c-1.5,0-2.72-1.22-2.72-2.72V23.71c0-1.5-1.22-2.72-2.72-2.72h-31.28c-1.5,0-2.72,1.22-2.72,2.72v180.79c0,1.5,1.22,2.72,2.72,2.72h147.91c1.5,0,2.71-1.22,2.71-2.71v-29.69c0-1.5-1.22-2.71-2.71-2.71Z" style="fill: rgb(241, 241, 241); stroke-width: 0;"></path><path d="M1234.98,20.99h-147.91c-1.5,0-2.71,1.22-2.71,2.71v29.69c0,1.5,1.22,2.71,2.71,2.71h52.87c1.5,0,2.71,1.22,2.71,2.71v145.67c0,1.5,1.22,2.71,2.71,2.71h31.29c1.5,0,2.71-1.22,2.71-2.71V58.83c0-1.5,1.22-2.71,2.71-2.71h52.89c1.5,0,2.71-1.22,2.71-2.71v-29.69c0-1.5-1.22-2.71-2.71-2.71Z" style="fill: rgb(241, 241, 241); stroke-width: 0;"></path><path d="M1412.19,20.99h-147.91c-1.5,0-2.71,1.22-2.71,2.71v29.69c0,1.5,1.22,2.71,2.71,2.71h52.87c1.5,0,2.71,1.22,2.71,2.71v145.67c0,1.5,1.22,2.71,2.71,2.71h31.29c1.5,0,2.71-1.22,2.71-2.71V58.83c0-1.5,1.22-2.71,2.71-2.71h52.89c1.5,0,2.71-1.22,2.71-2.71v-29.69c0-1.5-1.22-2.71-2.71-2.71Z" style="fill: rgb(241, 241, 241); stroke-width: 0;"></path><path d="M1054.12,622.76v-351.52c0-3.62-2.93-6.55-6.55-6.55h-75.48c-3.62,0-6.55,2.93-6.55,6.55v436.26c0,3.62,2.93,6.55,6.55,6.55h429.88c4.52,0,7.69-4.47,6.18-8.74l-25.32-71.63c-.93-2.62-3.4-4.37-6.18-4.37h-315.96c-3.62,0-6.55-2.93-6.55-6.55Z" style="fill: rgb(241, 241, 241); stroke-width: 0;"></path><path d="M1402.81,264.68h-100.64c-2.71,0-5.14,1.67-6.11,4.19l-113.59,294.07c-1.66,4.3,1.51,8.92,6.12,8.92h80.64c2.7,0,5.13-1.66,6.11-4.18l71.68-184.45c2.2-5.67,10.26-5.54,12.29.19l115.29,326.27c.93,2.62,3.4,4.37,6.18,4.37h75.87c4.52,0,7.69-4.47,6.18-8.73l-153.83-436.26c-.92-2.62-3.4-4.38-6.18-4.38Z" style="fill: rgb(241, 241, 241); stroke-width: 0;"></path><path d="M2191,579.16v4.13c0,71.98-58.57,130.58-130.58,130.58l-219.8.09c-4.97,0-7.66-5.88-4.35-9.58,17.83-19.95,30.5-43.07,37.67-68.63.71-2.51,2.95-4.27,5.56-4.27h176.78c14.44,0,27.52-5.86,36.99-15.33,9.55-9.55,15.42-22.76,15.32-37.38-.19-28.99-24.69-51.99-53.68-51.99h-78.03c-54.62,0-101.51-33.69-120.96-81.39-7.62-18.63-11.05-39.42-9.1-61.18,1.34-14.81,5.16-28.83,11.05-41.67,20.97-45.82,68.04-76.93,121.02-76.93h167.79c3.64,0,6.55,2.94,6.55,6.56v69.28c0,3.61-2.91,6.56-6.55,6.56h-169.79c-28.4,0-51.13,24.67-47.92,53.71,2.76,24.61,24.55,42.7,49.31,42.7h77.96c74.41,0,134.74,60.33,134.74,134.74Z" style="fill: rgb(241, 241, 241); stroke-width: 0;"></path><path d="M1826.24,584.02c0,15.26-2.15,29.41-6.46,42.49-6.49,19.6-17.84,36.75-34.05,51.41-23.73,21.49-52.26,33.53-85.61,36.11l-65.97.03c-2.28,0-4.31-1.15-5.49-3l-25.58-72.56c-.36-3.03,1.49-5.92,4.34-6.89.67-.24,1.4-.36,2.15-.36h75.96c14.99,0,27.4-5.04,37.24-15.08,9.83-10.04,14.78-22.79,14.78-38.21s-4.95-27.49-14.78-37.66c-5.52-5.61-11.87-9.62-19.06-12.08-1.43-.49-2.88-.91-4.34-1.27-4.34-1.09-8.95-1.61-13.84-1.61h-117.93c-2.28,0-4.31-1.15-5.49-3l-24.4-68.77c-.36-3.52,2.18-6.8,5.8-7.16h129.03c13.72,0,25.19-4.73,34.41-14.17,9.19-9.41,13.81-21.21,13.81-35.35s-4.49-25.95-13.5-35.38c-9.01-9.44-20.58-14.14-34.72-14.14h-169.27c-1.7-.33-3.19-1.34-4.16-2.79l-25.82-72.68c-.39-3.73,2.55-7.19,6.52-7.19h192.25c38.51,0,70.92,11.9,97.26,35.63,26.31,23.76,39.48,54.05,39.48,90.86,0,34.17-11.37,62.35-35.16,84.27-.61.58-4.99,4.41-6.57,5.68,1.88,1.09,3.73,2.22,5.52,3.34l.03.06c35.75,22.67,53.62,55.84,53.62,99.51Z" style="fill: rgb(241, 241, 241); stroke-width: 0;"></path><path fill="url(#_r_1o_)" d="M816.05,218.56v270.02c0,8.83-4.77,17-12.44,21.33l-392.04,221.97c-7.09,4.02-15.74,4.23-23.04.58L40.89,558.67l-27.33-13.66C5.25,540.85,0,532.35,0,523.06v-244.44c0-29.22,15.59-56.22,40.89-70.83h0S395.93,2.75,395.93,2.75c5.96-3.44,13.29-3.68,19.46-.58l.65.34c14.52,7.29,15.23,27.7,1.26,35.98L67.44,245.44c-8.55,5.04-15.37,12.3-19.97,20.79-4.23,7.84-6.58,16.66-6.58,25.76v195.32c0,10.39,7.46,19.66,17.75,20.99,12.47,1.57,23.14-8.14,23.14-20.28v-174.67c0-16.15,8.45-31.08,22.29-39.39L439.1,73.09l.03-.03,44.23-26.17c6-3.54,13.39-3.82,19.63-.68,7.49,3.78,11.31,11.04,11.31,18.37,0,6.78-3.3,13.63-10.05,17.62l-159.1,94.12-187.14,110.68c-9.06,5.35-16.22,13.22-20.79,22.39-3.71,7.39-5.76,15.67-5.76,24.16v195.15c0,11.21,8.59,20.96,19.76,21.3,11.59.38,21.13-8.89,21.13-20.41v-175.32c0-15.78,8.11-30.46,21.47-38.85l57.59-36.15,278.19-164.55.03-.03,39.8-23.55c6.58-3.88,14.69-4.19,21.53-.75,8.21,4.12,12.37,12.1,12.37,20.1,0,7.5-3.64,14.96-11.04,19.36l-165.75,98.04-177.98,105.3c-8.38,4.94-15.13,12.03-19.7,20.31-4.4,7.94-6.85,16.94-6.85,26.24v196.04c0,11.52,9.51,20.79,21.09,20.41,11.18-.34,19.8-10.09,19.8-21.3v-174.5c0-15.74,8.04-30.4,21.36-38.81l48.56-30.7,287.3-169.94.03-.03,40.75-24.13c6.41-3.78,14.31-4.05,20.96-.72,8.01,4.02,12.1,11.79,12.1,19.59,0,7.29-3.54,14.58-10.77,18.84l-163.46,96.71-180.6,106.83c-8.01,4.74-14.55,11.45-19.12,19.29-4.77,8.18-7.43,17.55-7.43,27.26v196.04c0,11.52,9.51,20.79,21.09,20.41,11.18-.34,19.8-10.09,19.8-21.3v-178.29c0-15.13,7.99-29.13,21.01-36.83l51.54-30.47,284.7-168.4,38.95-23.04c7.16-4.23,16.02-4.53,23.48-.78l29.34,14.72c8.28,4.16,13.53,12.64,13.53,21.94Z" style="stroke-width: 0;"></path></svg>